<svg width="16" height="12" viewBox="0 0 16 12" fill="none" xmlns="http://www.w3.org/2000/svg">
<path fill-rule="evenodd" clip-rule="evenodd" d="M9.22467 0.55876C9.34186 0.441718 9.50072 0.375977 9.66634 0.375977C9.83197 0.375977 9.99082 0.441718 10.108 0.55876L15.108 5.55876C15.225 5.67595 15.2908 5.8348 15.2908 6.00043C15.2908 6.16605 15.225 6.3249 15.108 6.44209L10.108 11.4421C10.0508 11.5035 9.98179 11.5528 9.90512 11.5869C9.82846 11.6211 9.7457 11.6394 9.66178 11.6409C9.57786 11.6424 9.4945 11.627 9.41668 11.5955C9.33885 11.5641 9.26816 11.5173 9.20881 11.458C9.14946 11.3986 9.10267 11.3279 9.07124 11.2501C9.0398 11.1723 9.02437 11.0889 9.02585 11.005C9.02733 10.9211 9.0457 10.8383 9.07986 10.7616C9.11402 10.685 9.16327 10.616 9.22467 10.5588L13.158 6.62543H1.33301C1.16725 6.62543 1.00828 6.55958 0.891066 6.44237C0.773856 6.32516 0.708008 6.16619 0.708008 6.00043C0.708008 5.83467 0.773856 5.6757 0.891066 5.55849C1.00828 5.44127 1.16725 5.37543 1.33301 5.37543H13.158L9.22467 1.44209C9.10763 1.32491 9.04189 1.16605 9.04189 1.00043C9.04189 0.834801 9.10763 0.675948 9.22467 0.55876Z" fill="#09090B"/>
</svg>
