<svg width="28" height="28" viewBox="0 0 28 28" fill="none" xmlns="http://www.w3.org/2000/svg">
<path fill-rule="evenodd" clip-rule="evenodd" d="M14.0001 1.4585C11.6021 1.4585 9.30229 2.4111 7.60665 4.10674C5.91101 5.80238 4.95841 8.10216 4.95841 10.5002V11.3215C4.95834 12.1345 4.71762 12.9294 4.26657 13.6058L2.92841 15.616C1.37207 17.9493 2.55974 21.1203 5.26524 21.8577C6.14646 22.098 7.03469 22.3014 7.92991 22.4678L7.93224 22.4737C8.82824 24.8677 11.2257 26.5418 14.0001 26.5418C16.7744 26.5418 19.1719 24.8677 20.0691 22.4737L20.0714 22.4678C20.9675 22.3004 21.8564 22.0969 22.7361 21.8577C25.4416 21.1203 26.6292 17.9493 25.0729 15.616L23.7336 13.6058C23.2825 12.9294 23.0418 12.1345 23.0417 11.3215V10.5002C23.0417 8.10216 22.0891 5.80238 20.3935 4.10674C18.6979 2.4111 16.3981 1.4585 14.0001 1.4585ZM17.9387 22.7933C15.3219 23.1056 12.6771 23.1056 10.0602 22.7933C10.8897 23.9845 12.3329 24.7918 14.0001 24.7918C15.6672 24.7918 17.1092 23.9845 17.9387 22.7933ZM6.70841 10.5002C6.70841 8.56629 7.47664 6.71163 8.84409 5.34418C10.2115 3.97672 12.0662 3.2085 14.0001 3.2085C15.9339 3.2085 17.7886 3.97672 19.1561 5.34418C20.5235 6.71163 21.2917 8.56629 21.2917 10.5002V11.3215C21.2917 12.48 21.6347 13.6128 22.2776 14.5765L23.6169 16.5867C23.8244 16.8975 23.9551 17.2532 23.9981 17.6244C24.041 17.9957 23.9951 18.3718 23.864 18.7218C23.733 19.0718 23.5205 19.3856 23.2443 19.6373C22.968 19.889 22.6359 20.0715 22.2752 20.1695C16.857 21.6472 11.142 21.6472 5.72374 20.1695C5.36328 20.0714 5.03131 19.889 4.7552 19.6374C4.47909 19.3857 4.26676 19.0721 4.13571 18.7222C4.00467 18.3724 3.95867 17.9964 4.0015 17.6253C4.04434 17.2542 4.17478 16.8986 4.38207 16.5878L5.72374 14.5765C6.36604 13.6125 6.70865 12.4799 6.70841 11.3215V10.5002Z" fill="#7360F9"/>
</svg>
