<svg width="13" height="12" viewBox="0 0 13 12" fill="none" xmlns="http://www.w3.org/2000/svg">
<path d="M5.28125 6C5.28125 5.70163 5.39978 5.41548 5.61075 5.2045C5.82173 4.99353 6.10788 4.875 6.40625 4.875C6.70462 4.875 6.99077 4.99353 7.20174 5.2045C7.41272 5.41548 7.53125 5.70163 7.53125 6C7.53125 6.29837 7.41272 6.58452 7.20174 6.79549C6.99077 7.00647 6.70462 7.125 6.40625 7.125C6.10788 7.125 5.82173 7.00647 5.61075 6.79549C5.39978 6.58452 5.28125 6.29837 5.28125 6Z" fill="#5E6978"/>
<path fill-rule="evenodd" clip-rule="evenodd" d="M1.40625 5.99902C1.40625 6.81902 1.61875 7.09452 2.04375 7.64702C2.89225 8.74902 4.31525 9.99902 6.40625 9.99902C8.49725 9.99902 9.92025 8.74902 10.7688 7.64702C11.1938 7.09502 11.4062 6.81852 11.4062 5.99902C11.4062 5.17902 11.1938 4.90352 10.7688 4.35102C9.92025 3.24902 8.49725 1.99902 6.40625 1.99902C4.31525 1.99902 2.89225 3.24902 2.04375 4.35102C1.61875 4.90402 1.40625 5.17952 1.40625 5.99902ZM6.40625 4.12402C5.90897 4.12402 5.43206 4.32157 5.08042 4.6732C4.72879 5.02483 4.53125 5.50174 4.53125 5.99902C4.53125 6.4963 4.72879 6.97322 5.08042 7.32485C5.43206 7.67648 5.90897 7.87402 6.40625 7.87402C6.90353 7.87402 7.38044 7.67648 7.73208 7.32485C8.08371 6.97322 8.28125 6.4963 8.28125 5.99902C8.28125 5.50174 8.08371 5.02483 7.73208 4.6732C7.38044 4.32157 6.90353 4.12402 6.40625 4.12402Z" fill="#5E6978"/>
</svg>
