<svg width="18" height="19" viewBox="0 0 18 19" fill="none" xmlns="http://www.w3.org/2000/svg">
<path fill-rule="evenodd" clip-rule="evenodd" d="M13 0.957031H5C2.23858 0.957031 0 3.19561 0 5.95703V13.957C0 16.7184 2.23858 18.957 5 18.957H13C15.7614 18.957 18 16.7184 18 13.957V5.95703C18 3.19561 15.7614 0.957031 13 0.957031ZM16.25 13.957C16.2445 15.7496 14.7926 17.2015 13 17.207H5C3.20735 17.2015 1.75549 15.7496 1.75 13.957V5.95703C1.75549 4.16438 3.20735 2.71252 5 2.70703H13C14.7926 2.71252 16.2445 4.16438 16.25 5.95703V13.957ZM13.75 6.20703C14.3023 6.20703 14.75 5.75931 14.75 5.20703C14.75 4.65475 14.3023 4.20703 13.75 4.20703C13.1977 4.20703 12.75 4.65475 12.75 5.20703C12.75 5.75931 13.1977 6.20703 13.75 6.20703ZM9 5.45703C6.51472 5.45703 4.5 7.47175 4.5 9.95703C4.5 12.4423 6.51472 14.457 9 14.457C11.4853 14.457 13.5 12.4423 13.5 9.95703C13.5027 8.76273 13.0294 7.6166 12.1849 6.77211C11.3404 5.92762 10.1943 5.45437 9 5.45703ZM6.25 9.95703C6.25 11.4758 7.4812 12.707 9 12.707C10.5188 12.707 11.75 11.4758 11.75 9.95703C11.75 8.43823 10.5188 7.20703 9 7.20703C7.4812 7.20703 6.25 8.43823 6.25 9.95703Z" fill="#1A1D21"/>
</svg>
