<svg width="24" height="24" viewBox="0 0 24 24" fill="none" xmlns="http://www.w3.org/2000/svg">
<path d="M3 10.2342L3.747 10.1702C3.72978 9.97812 3.63924 9.80005 3.49416 9.67298C3.34909 9.54591 3.16064 9.47961 2.96796 9.48784C2.77528 9.49608 2.59318 9.57823 2.45948 9.71721C2.32578 9.8562 2.25076 10.0414 2.25 10.2342H3ZM20.236 12.0572L19.53 16.1372L21.009 16.3932L21.714 12.3132L20.236 12.0572ZM13.245 21.2502H8.596V22.7502H13.245V21.2502ZM7.685 20.4132L6.873 11.0202L5.378 11.1492L6.191 20.5422L7.685 20.4132ZM19.53 16.1372C19.023 19.0672 16.381 21.2502 13.245 21.2502V22.7502C17.071 22.7502 20.371 20.0812 21.009 16.3932L19.53 16.1372ZM13.255 5.10021L12.592 9.14521L14.072 9.38721L14.735 5.34321L13.255 5.10021ZM7.188 10.2462L8.627 9.00621L7.647 7.87021L6.21 9.11021L7.188 10.2462ZM11.244 4.97221L11.72 3.13821L10.268 2.76221L9.792 4.59521L11.244 4.97221ZM12.438 2.77821L12.583 2.82521L13.042 1.39721L12.897 1.35021L12.438 2.77821ZM10.523 6.81621C10.8352 6.23212 11.0772 5.61315 11.244 4.97221L9.792 4.59521C9.65421 5.1215 9.45553 5.62993 9.2 6.11021L10.523 6.81621ZM12.583 2.82521C12.7255 2.86887 12.8547 2.9476 12.9588 3.05417C13.063 3.16075 13.1387 3.29177 13.179 3.43521L14.631 3.05921C14.5281 2.67051 14.3284 2.31422 14.0505 2.02358C13.7727 1.73295 13.4257 1.51746 13.042 1.39721L12.583 2.82521ZM11.72 3.13821C11.7402 3.06632 11.7757 2.99964 11.824 2.9427C11.8724 2.88575 11.9324 2.83988 12 2.80821L11.349 1.45721C10.817 1.71321 10.417 2.18721 10.268 2.76221L11.72 3.13821ZM12 2.80821C12.137 2.74324 12.2935 2.73252 12.438 2.77821L12.897 1.35021C12.3863 1.18694 11.8324 1.22522 11.349 1.45721L12 2.80821ZM14.154 10.9842H19.334V9.48421H14.154V10.9842ZM4.719 21.4062L3.747 10.1702L2.253 10.2992L3.223 21.5352L4.719 21.4062ZM3.75 21.5132V10.2342H2.25V21.5132H3.75ZM3.223 21.5352C3.21995 21.4989 3.22549 21.4623 3.23733 21.4278C3.24918 21.3933 3.26807 21.3617 3.2928 21.3348C3.31753 21.308 3.34757 21.2867 3.381 21.2721C3.41443 21.2575 3.45053 21.2501 3.487 21.2502V22.7502C4.213 22.7502 4.781 22.1282 4.719 21.4062L3.223 21.5352ZM14.735 5.34321C14.8607 4.583 14.8253 3.80485 14.631 3.05921L13.179 3.43621C13.3208 3.9794 13.3467 4.54636 13.255 5.10021L14.735 5.34321ZM8.596 21.2502C8.36701 21.2498 8.14648 21.1637 7.97785 21.0087C7.80923 20.8538 7.70475 20.6413 7.685 20.4132L6.191 20.5422C6.24303 21.1444 6.51888 21.7052 6.96411 22.1139C7.40933 22.5227 7.99159 22.7497 8.596 22.7502V21.2502ZM8.627 9.00621C9.307 8.42021 10.039 7.72321 10.524 6.81621L9.2 6.11021C8.854 6.75921 8.303 7.30621 7.647 7.87021L8.627 9.00621ZM21.714 12.3132C21.7742 11.9662 21.7578 11.6102 21.666 11.2702C21.5741 10.9302 21.4091 10.6144 21.1823 10.3449C20.9556 10.0754 20.6727 9.85868 20.3534 9.71001C20.0341 9.56134 19.6862 9.48427 19.334 9.48421V10.9842C19.901 10.9842 20.334 11.4962 20.236 12.0572L21.714 12.3132ZM3.487 21.2502C3.633 21.2502 3.75 21.3682 3.75 21.5132H2.25C2.25 22.1952 2.803 22.7502 3.487 22.7502V21.2502ZM12.592 9.14521C12.5547 9.37179 12.5672 9.60377 12.6285 9.82505C12.6899 10.0463 12.7986 10.2516 12.9472 10.4267C13.0958 10.6017 13.2807 10.7424 13.4891 10.8388C13.6975 10.9353 13.9244 10.9842 14.154 10.9842V9.48421C14.1418 9.48426 14.1297 9.48263 14.1187 9.47749C14.1076 9.47235 14.0978 9.46483 14.09 9.45547C14.0821 9.44612 14.0765 9.43515 14.0734 9.42335C14.0703 9.41155 14.0698 9.39921 14.072 9.38721L12.592 9.14521ZM6.873 11.0202C6.8608 10.8754 6.88208 10.7298 6.937 10.5952C6.99193 10.4607 7.07794 10.3411 7.188 10.2462L6.208 9.10921C5.91814 9.35935 5.69177 9.67468 5.54748 10.0293C5.4032 10.384 5.34511 10.7678 5.378 11.1492L6.873 11.0202Z" fill="#09090B"/>
</svg>
