<svg width="18" height="19" viewBox="0 0 18 19" fill="none" xmlns="http://www.w3.org/2000/svg">
<path fill-rule="evenodd" clip-rule="evenodd" d="M1.5 0.957031C0.67157 0.957031 0 1.6286 0 2.45703V17.457C0 18.2854 0.67157 18.957 1.5 18.957H16.5C17.3284 18.957 18 18.2854 18 17.457V2.45703C18 1.6286 17.3284 0.957031 16.5 0.957031H1.5ZM5.52076 4.95975C5.52639 5.916 4.81061 6.50522 3.96123 6.501C3.16107 6.49678 2.46357 5.85975 2.46779 4.96116C2.47201 4.116 3.13998 3.43678 4.00764 3.45647C4.88795 3.47616 5.52639 4.12163 5.52076 4.95975ZM9.2797 7.71879H6.75971H6.7583V16.2786H9.4217V16.0789C9.4217 15.699 9.4214 15.319 9.4211 14.9389C9.4203 13.9251 9.4194 12.9102 9.4246 11.8967C9.426 11.6506 9.4372 11.3947 9.5005 11.1598C9.7381 10.2823 10.5271 9.71563 11.4074 9.85493C11.9727 9.94343 12.3467 10.2711 12.5042 10.8041C12.6013 11.1373 12.6449 11.4959 12.6491 11.8433C12.6605 12.8909 12.6589 13.9385 12.6573 14.9862C12.6567 15.356 12.6561 15.726 12.6561 16.0958V16.2772H15.328V16.0719C15.328 15.6199 15.3278 15.168 15.3275 14.7161C15.327 13.5866 15.3264 12.4571 15.3294 11.3272C15.3308 10.8167 15.276 10.3133 15.1508 9.81973C14.9638 9.08563 14.5771 8.47813 13.9485 8.03943C13.5027 7.72722 13.0133 7.52613 12.4663 7.50363C12.404 7.50104 12.3412 7.49765 12.2781 7.49424C11.9984 7.47912 11.7141 7.46376 11.4467 7.51769C10.6817 7.67097 10.0096 8.02113 9.5019 8.63843C9.4429 8.70923 9.3852 8.78113 9.2991 8.88843L9.2797 8.91273V7.71879ZM2.68164 16.2814H5.33242V7.72436H2.68164V16.2814Z" fill="#1A1D21"/>
</svg>
