<svg width="160" height="36" viewBox="0 0 160 36" fill="none" xmlns="http://www.w3.org/2000/svg">
<path fill-rule="evenodd" clip-rule="evenodd" d="M12.8182 17.6428V4.93151C12.8182 2.20791 15.0261 0 17.7497 0V12.8219C17.7497 15.5455 15.5418 17.7534 12.8182 17.7534V17.747C12.6047 17.747 12.3859 17.7486 12.1635 17.7501C11.2775 17.7564 10.3324 17.763 9.42656 17.6754C8.29189 17.5657 7.21102 17.3075 6.37755 16.7097C5.54164 16.1102 4.95999 15.1731 4.81751 13.7183C4.67526 12.2658 4.97055 10.2968 5.8853 7.62784C5.89246 7.60693 5.91266 7.59335 5.93472 7.59459C5.95679 7.59584 5.97533 7.61161 5.9801 7.63318C7.48589 14.4452 11.8414 17.2308 12.8182 17.6428ZM5.93421 7.87653C7.32954 13.8642 10.9211 16.698 12.3687 17.5248C10.4287 16.9392 8.65938 15.5982 7.4498 13.8983C6.18898 12.1265 5.53939 9.96912 5.93421 7.87653ZM4.91567 13.7087C4.80801 12.6094 4.95411 11.2031 5.44043 9.40476C4.95557 12.1492 5.6183 14.1238 6.862 15.4617C8.04221 16.7314 9.73956 17.4209 11.4562 17.6548C10.7864 17.6548 10.1008 17.6416 9.43606 17.5773C8.30777 17.4681 7.24755 17.2123 6.43503 16.6296C5.62495 16.0486 5.05573 15.1387 4.91567 13.7087ZM6.93424 15.3946C5.57314 13.9304 4.90993 11.6779 5.75452 8.43281C5.56018 10.3727 6.21131 12.328 7.36944 13.9555C8.60462 15.6914 10.4193 17.0587 12.4099 17.6399C10.4053 17.558 8.30936 16.8739 6.93424 15.3946Z" fill="#7360F9"/>
<path d="M17.7534 23.1781H4.93151C2.20791 23.1781 0 20.9702 0 18.2466H12.8219C15.5455 18.2466 17.7534 20.4545 17.7534 23.1781Z" fill="#7360F9"/>
<path fill-rule="evenodd" clip-rule="evenodd" d="M23.1818 18.3557V31.0685C23.1818 33.7921 20.9739 36 18.2503 36V23.1781C18.2503 20.4545 20.4582 18.2466 23.1818 18.2466V18.253C23.3965 18.253 23.6165 18.2514 23.8403 18.2499C24.7262 18.2436 25.6713 18.2369 26.5771 18.3246C27.7118 18.4343 28.7927 18.6925 29.6262 19.2903C30.4621 19.8898 31.0437 20.8269 31.1862 22.2817C31.3285 23.7342 31.0332 25.7032 30.1184 28.3722C30.1112 28.3931 30.0911 28.4067 30.069 28.4054C30.0469 28.4042 30.0284 28.3884 30.0236 28.3668C28.5159 21.5461 24.1511 18.762 23.1818 18.3557ZM30.0695 28.1235C28.6742 22.1358 25.0826 19.302 23.635 18.4752C25.575 19.0608 27.3443 20.4018 28.5539 22.1016C29.8147 23.8735 30.4643 26.0309 30.0695 28.1235ZM31.088 22.2913C31.1957 23.3906 31.0496 24.7969 30.5633 26.5952C31.0481 23.8508 30.3854 21.8762 29.1417 20.5383C27.9615 19.2686 26.2641 18.5791 24.5475 18.3452C25.2173 18.3452 25.9029 18.3584 26.5677 18.4227C27.6959 18.5319 28.7562 18.7877 29.5687 19.3704C30.3788 19.9514 30.948 20.8613 31.088 22.2913ZM29.0695 20.6054C30.4306 22.0696 31.0938 24.3221 30.2492 27.5672C30.4435 25.6273 29.7924 23.672 28.6343 22.0445C27.3991 20.3086 25.5844 18.9413 23.5938 18.3601C25.5984 18.442 27.6944 19.1261 29.0695 20.6054Z" fill="#7360F9"/>
<path d="M18.2466 12.8219H31.0685C33.7921 12.8219 36 15.0298 36 17.7534H23.1781C20.4545 17.7534 18.2466 15.5455 18.2466 12.8219Z" fill="#7360F9"/>
<path d="M44.35 31L55.01 2.4H61.31L71.83 31H67.37L64.76 23.83H51.36L48.71 31H44.35ZM63.37 20.03L58.11 5.57L52.76 20.03H63.37ZM82.3334 8.35C83.8334 8.35 85.1668 8.52 86.3334 8.86C87.5068 9.2 88.4934 9.68667 89.2934 10.32C90.1001 10.9467 90.7134 11.71 91.1334 12.61C91.5534 13.5033 91.7634 14.5067 91.7634 15.62H87.8034C87.8034 15.0533 87.6834 14.54 87.4434 14.08C87.2101 13.6133 86.8601 13.2167 86.3934 12.89C85.9334 12.5567 85.3634 12.3 84.6834 12.12C84.0034 11.94 83.2201 11.85 82.3334 11.85C81.5334 11.85 80.8034 11.9233 80.1434 12.07C79.4901 12.2167 78.9268 12.4267 78.4534 12.7C77.9801 12.9667 77.6134 13.29 77.3534 13.67C77.0934 14.0433 76.9634 14.46 76.9634 14.92C76.9634 15.2667 77.0368 15.5733 77.1834 15.84C77.3301 16.1 77.5301 16.3267 77.7834 16.52C78.0368 16.7133 78.3334 16.88 78.6734 17.02C79.0134 17.1533 79.3768 17.27 79.7634 17.37C80.1568 17.47 80.5634 17.5567 80.9834 17.63C81.4034 17.6967 81.8168 17.7633 82.2234 17.83L83.7034 18.06C84.3168 18.1533 84.9601 18.2633 85.6334 18.39C86.3134 18.51 86.9801 18.6733 87.6334 18.88C88.2934 19.08 88.9201 19.3367 89.5134 19.65C90.1134 19.9567 90.6401 20.3433 91.0934 20.81C91.5468 21.2767 91.9068 21.8367 92.1734 22.49C92.4401 23.1367 92.5734 23.9067 92.5734 24.8C92.5734 25.8867 92.3601 26.8533 91.9334 27.7C91.5068 28.54 90.8768 29.25 90.0434 29.83C89.2101 30.41 88.1801 30.85 86.9534 31.15C85.7268 31.45 84.3101 31.6 82.7034 31.6C81.0301 31.6 79.5634 31.4367 78.3034 31.11C77.0434 30.7833 75.9934 30.3033 75.1534 29.67C74.3134 29.0367 73.6801 28.26 73.2534 27.34C72.8334 26.4133 72.6234 25.35 72.6234 24.15H76.5734C76.5734 25.4167 77.0734 26.3933 78.0734 27.08C79.0734 27.76 80.6134 28.1 82.6934 28.1C83.6334 28.1 84.4701 28.03 85.2034 27.89C85.9368 27.75 86.5568 27.5433 87.0634 27.27C87.5701 26.9967 87.9568 26.66 88.2234 26.26C88.4901 25.86 88.6234 25.4033 88.6234 24.89C88.6234 24.49 88.5468 24.14 88.3934 23.84C88.2401 23.5333 88.0268 23.27 87.7534 23.05C87.4801 22.8233 87.1568 22.63 86.7834 22.47C86.4168 22.3033 86.0168 22.16 85.5834 22.04C85.1501 21.92 84.6968 21.8167 84.2234 21.73C83.7568 21.6367 83.2834 21.55 82.8034 21.47L81.3334 21.22C80.7734 21.1267 80.1801 21.02 79.5534 20.9C78.9268 20.7733 78.3034 20.6167 77.6834 20.43C77.0701 20.2367 76.4801 19.9967 75.9134 19.71C75.3534 19.4167 74.8568 19.0567 74.4234 18.63C73.9968 18.2033 73.6534 17.6933 73.3934 17.1C73.1401 16.5067 73.0134 15.81 73.0134 15.01C73.0134 13.9967 73.2268 13.08 73.6534 12.26C74.0868 11.44 74.7034 10.74 75.5034 10.16C76.3101 9.58 77.2868 9.13333 78.4334 8.82C79.5868 8.50667 80.8868 8.35 82.3334 8.35ZM108.642 30.83C106.956 31.3367 105.436 31.59 104.082 31.59C102.982 31.59 102.009 31.42 101.162 31.08C100.322 30.7467 99.6155 30.25 99.0422 29.59C98.4689 28.9233 98.0322 28.1 97.7322 27.12C97.4389 26.1333 97.2922 24.9933 97.2922 23.7V12.35H94.2922V8.95H97.2922V3.87H101.342V8.95H108.642V12.35H101.342V23.71C101.342 25.17 101.616 26.25 102.162 26.95C102.716 27.6433 103.582 27.99 104.762 27.99C105.222 27.99 105.769 27.9367 106.402 27.83C107.042 27.7233 107.789 27.5567 108.642 27.33V30.83ZM115.548 31H111.498V8.95H115.548V15.99C115.808 14.89 116.178 13.9067 116.658 13.04C117.145 12.1667 117.745 11.4267 118.458 10.82C119.172 10.2133 119.995 9.75 120.928 9.43C121.868 9.11 122.922 8.95 124.088 8.95H125.098V12.81H124.098C122.485 12.81 121.132 12.96 120.038 13.26C118.945 13.5533 118.065 14 117.398 14.6C116.738 15.2 116.265 15.9567 115.978 16.87C115.692 17.7767 115.548 18.8433 115.548 20.07V31ZM131.898 6.4H127.648V1.4H131.898V6.4ZM131.798 31H127.748V8.95H131.798V31ZM148.634 19.8L157.414 31H152.614L145.514 21.98L138.614 31H134.064L142.704 19.85L134.504 8.95H139.304L145.814 17.64L152.164 8.95H156.714L148.634 19.8Z" fill="#7360F9"/>
</svg>
