<svg width="20" height="21" viewBox="0 0 20 21" fill="none" xmlns="http://www.w3.org/2000/svg">
<path fill-rule="evenodd" clip-rule="evenodd" d="M9.58366 2.7915C8.6261 2.7915 7.67792 2.98011 6.79326 3.34655C5.90859 3.71299 5.10477 4.25009 4.42767 4.92718C3.75058 5.60428 3.21348 6.4081 2.84704 7.29277C2.4806 8.17744 2.29199 9.12562 2.29199 10.0832C2.29199 11.0407 2.4806 11.9889 2.84704 12.8736C3.21348 13.7582 3.75058 14.5621 4.42767 15.2392C5.10477 15.9163 5.90859 16.4534 6.79326 16.8198C7.67792 17.1862 8.6261 17.3748 9.58366 17.3748C11.5175 17.3748 13.3722 16.6066 14.7396 15.2392C16.1071 13.8717 16.8753 12.017 16.8753 10.0832C16.8753 8.1493 16.1071 6.29464 14.7396 4.92718C13.3722 3.55973 11.5175 2.7915 9.58366 2.7915ZM1.04199 10.0832C1.04199 5.3665 4.86699 1.5415 9.58366 1.5415C14.3003 1.5415 18.1253 5.3665 18.1253 10.0832C18.1253 12.2165 17.3428 14.1682 16.0495 15.6648L18.7753 18.3915C18.8367 18.4487 18.886 18.5177 18.9201 18.5944C18.9543 18.6711 18.9727 18.7538 18.9742 18.8377C18.9756 18.9217 18.9602 19.005 18.9288 19.0828C18.8973 19.1607 18.8505 19.2314 18.7912 19.2907C18.7318 19.3501 18.6611 19.3968 18.5833 19.4283C18.5055 19.4597 18.4221 19.4751 18.3382 19.4737C18.2543 19.4722 18.1715 19.4538 18.0949 19.4197C18.0182 19.3855 17.9492 19.3362 17.892 19.2748L15.1653 16.549C13.616 17.8914 11.6337 18.6286 9.58366 18.6248C4.86699 18.6248 1.04199 14.7998 1.04199 10.0832Z" fill="#09090B"/>
</svg>
