<svg width="24" height="24" viewBox="0 0 24 24" fill="none" xmlns="http://www.w3.org/2000/svg">
<path fill-rule="evenodd" clip-rule="evenodd" d="M14.989 3.99009C15.056 3.91786 15.1365 3.85952 15.226 3.81842C15.3155 3.77732 15.4123 3.75425 15.5107 3.75053C15.6091 3.74682 15.7073 3.76253 15.7997 3.79677C15.8921 3.83101 15.9768 3.88311 16.049 3.95009L21.265 8.79409C21.7458 9.24056 22.1266 9.78378 22.3824 10.388C22.6382 10.9922 22.7631 11.6438 22.7489 12.2998C22.7347 12.9557 22.5818 13.6013 22.3002 14.1939C22.0186 14.7865 21.6146 15.3128 21.115 15.7381L16.025 20.0711C15.95 20.135 15.8632 20.1835 15.7695 20.2138C15.6757 20.2441 15.5769 20.2557 15.4787 20.2479C15.3806 20.24 15.2849 20.2129 15.1971 20.1681C15.1094 20.1232 15.0314 20.0616 14.9675 19.9866C14.9036 19.9116 14.8551 19.8248 14.8248 19.7311C14.7945 19.6373 14.7829 19.5385 14.7907 19.4403C14.7986 19.3421 14.8257 19.2465 14.8705 19.1587C14.9153 19.071 14.977 18.993 15.052 18.9291L20.142 14.5961C20.4805 14.3081 20.7541 13.9517 20.9449 13.5504C21.1357 13.149 21.2393 12.7118 21.2489 12.2675C21.2586 11.8232 21.174 11.3819 21.0008 10.9727C20.8276 10.5634 20.5697 10.1955 20.244 9.8931L15.028 5.05009C14.9558 4.98313 14.8974 4.90258 14.8563 4.81307C14.8152 4.72355 14.7922 4.62681 14.7884 4.52838C14.7847 4.42995 14.8004 4.33175 14.8347 4.23939C14.8689 4.14703 14.921 4.06232 14.988 3.99009M13.123 4.88509C13.1363 4.89509 13.1493 4.90643 13.162 4.91909L17.176 8.4871C17.924 9.1521 18.546 9.70409 18.972 10.2051C19.42 10.7321 19.739 11.2991 19.739 12.0001C19.739 12.7011 19.419 13.2681 18.972 13.7951C18.545 14.2951 17.924 14.8481 17.176 15.5131L13.162 19.0811L13.123 19.1161C12.799 19.4041 12.496 19.6731 12.234 19.8461C11.977 20.0161 11.51 20.2621 10.987 20.0261C10.464 19.7921 10.337 19.2791 10.294 18.9741C10.249 18.6641 10.249 18.2591 10.249 17.8241V16.2041C8.78833 16.3061 7.36018 16.6838 6.04 17.3171C4.527 18.0541 3.319 19.1001 2.663 20.3491C2.58477 20.497 2.4593 20.6146 2.30658 20.683C2.15385 20.7514 1.98263 20.7667 1.82016 20.7266C1.65769 20.6865 1.51331 20.5932 1.41 20.4615C1.30668 20.3299 1.25036 20.1674 1.25 20.0001C1.25 15.2791 2.631 12.2051 4.606 10.3151C6.328 8.66809 8.426 7.99209 10.25 7.85109V6.17509C10.25 5.74109 10.25 5.33509 10.295 5.02509C10.338 4.72109 10.465 4.20809 10.988 3.97309C11.511 3.73809 11.978 3.98509 12.235 4.15409C12.497 4.32709 12.8 4.59609 13.124 4.88409M11.754 5.67609C11.8647 5.77209 12.002 5.89309 12.166 6.03909L16.138 9.5691C16.939 10.2821 17.48 10.7651 17.83 11.1761C18.167 11.5721 18.24 11.8021 18.24 11.9991C18.24 12.1961 18.167 12.4271 17.83 12.8221C17.48 13.2331 16.94 13.7161 16.138 14.4281L12.166 17.9591C12.0027 18.1051 11.865 18.2261 11.753 18.3221C11.7503 18.1741 11.7493 17.9908 11.75 17.7721V15.4301C11.75 15.2312 11.671 15.0404 11.5303 14.8998C11.3897 14.7591 11.1989 14.6801 11 14.6801C9.087 14.6801 7.1 15.1341 5.384 15.9701C4.47234 16.407 3.62998 16.9758 2.884 17.6581C3.253 14.6111 4.342 12.6451 5.644 11.4001C7.264 9.84909 9.31 9.32109 11 9.32109C11.1989 9.32109 11.3897 9.24208 11.5303 9.10142C11.671 8.96077 11.75 8.77001 11.75 8.57109V6.22709C11.75 6.00843 11.751 5.82509 11.753 5.67709" fill="#09090B"/>
</svg>
