<svg width="16" height="16" viewBox="0 0 16 16" fill="none" xmlns="http://www.w3.org/2000/svg">
<path d="M13.5144 10.8434L13.9844 8.12339C14.012 7.96396 14.0044 7.80044 13.9622 7.64425C13.92 7.48807 13.8442 7.34299 13.74 7.21917C13.6359 7.09535 13.506 6.99577 13.3593 6.92741C13.2127 6.85905 13.0529 6.82354 12.8911 6.82339H9.43711C9.3565 6.8234 9.27686 6.80587 9.20371 6.77201C9.13056 6.73815 9.06565 6.68877 9.01351 6.6273C8.96136 6.56582 8.92322 6.49374 8.90174 6.41605C8.88026 6.33835 8.87595 6.25691 8.88911 6.17739L9.33111 3.48072C9.40251 3.04286 9.38207 2.59493 9.27111 2.16539C9.22321 1.98806 9.1314 1.82566 9.00416 1.69318C8.87693 1.5607 8.71836 1.46241 8.54311 1.40739L8.44644 1.37605C8.22786 1.30612 7.99081 1.32234 7.78378 1.42139C7.55711 1.53072 7.39178 1.73005 7.33045 1.96672L7.01311 3.18939C6.91225 3.57853 6.76544 3.95428 6.57578 4.30872C6.29911 4.82672 5.87111 5.24205 5.42578 5.62539L4.46644 6.45205C4.33336 6.56706 4.22941 6.71196 4.16313 6.87489C4.09685 7.03782 4.07011 7.21413 4.08511 7.38939L4.62644 13.6514C4.6503 13.9283 4.77714 14.1863 4.9819 14.3742C5.18667 14.5622 5.45448 14.6666 5.73244 14.6667H8.83111C11.1524 14.6667 13.1331 13.0494 13.5144 10.8434Z" fill="#5E6978"/>
<path fill-rule="evenodd" clip-rule="evenodd" d="M1.97872 6.32323C2.10756 6.3176 2.23359 6.36197 2.33049 6.44706C2.42739 6.53216 2.48766 6.65141 2.49872 6.7799L3.14539 14.2706C3.15634 14.3821 3.14444 14.4947 3.11041 14.6015C3.07639 14.7083 3.02095 14.807 2.94748 14.8917C2.87401 14.9763 2.78406 15.0451 2.68312 15.0939C2.58218 15.1426 2.47237 15.1702 2.36039 15.1751C2.24841 15.1799 2.13661 15.1619 2.03183 15.1221C1.92706 15.0823 1.83149 15.0215 1.75097 14.9436C1.67045 14.8656 1.60668 14.772 1.56354 14.6686C1.52039 14.5651 1.49879 14.454 1.50005 14.3419V6.82257C1.50011 6.69369 1.54992 6.56981 1.63911 6.47677C1.72829 6.38374 1.84996 6.32873 1.97872 6.32323Z" fill="#5E6978"/>
</svg>
