<svg width="16" height="16" viewBox="0 0 16 16" fill="none" xmlns="http://www.w3.org/2000/svg">
  <path d="M13.5144 5.1566L13.9844 7.8766C14.012 8.03604 14.0044 8.19956 13.9622 8.35575C13.92 8.51193 13.8442 8.65701 13.74 8.78083C13.6359 8.90465 13.506 9.00423 13.3593 9.07259C13.2127 9.14095 13.0529 9.17646 12.8911 9.17661H9.43711C9.3565 9.1766 9.27686 9.19413 9.20371 9.22799C9.13056 9.26185 9.06565 9.31123 9.01351 9.3727C8.96136 9.43418 8.92322 9.50626 8.90174 9.58395C8.88026 9.66165 8.87595 9.74309 8.88911 9.82261L9.33111 12.5193C9.40251 12.9571 9.38207 13.4051 9.27111 13.8346C9.22321 14.0119 9.1314 14.1743 9.00416 14.3068C8.87693 14.4393 8.71836 14.5376 8.54311 14.5926L8.44644 14.623C8.22786 14.6929 7.99081 14.6767 7.78378 14.5776C7.55711 14.4683 7.39178 14.269 7.33045 14.0323L7.01311 12.8096C6.91225 12.4205 6.76544 12.0447 6.57578 11.6903C6.29911 11.1723 5.87111 10.757 5.42578 10.3736L4.46644 9.54695C4.33336 9.43194 4.22941 9.28704 4.16313 9.12411C4.09685 8.96118 4.07011 8.78487 4.08511 8.60961L4.62644 2.34758C4.6503 2.07068 4.77714 1.81272 4.9819 1.62475C5.18667 1.43679 5.45448 1.33242 5.73244 1.33236H8.83111C11.1524 1.33236 13.1331 2.94963 13.5144 5.1566Z" fill="#5E6978"/>
  <path fill-rule="evenodd" clip-rule="evenodd" d="M1.97872 9.67677C2.10756 9.6824 2.23359 9.63803 2.33049 9.55294C2.42739 9.46784 2.48766 9.34859 2.49872 9.2201L3.14539 1.72939C3.15634 1.61786 3.14444 1.50525 3.11041 1.39849C3.07639 1.29172 3.02095 1.19296 2.94748 1.10833C2.87401 1.02374 2.78406 0.954938 2.68312 0.906121C2.58218 0.857304 2.47237 0.829752 2.36039 0.824875C2.24841 0.820018 2.13661 0.83804 2.03183 0.877865C1.92706 0.917691 1.83149 0.978524 1.75097 1.05645C1.67045 1.13437 1.60668 1.22797 1.56354 1.33141C1.52039 1.43485 1.49879 1.54598 1.50005 1.65806V9.17743C1.50011 9.30631 1.54992 9.43019 1.63911 9.52323C1.72829 9.61626 1.84996 9.67127 1.97872 9.67677Z" fill="#5E6978"/>
</svg>