<svg width="24" height="24" viewBox="0 0 24 24" fill="none" xmlns="http://www.w3.org/2000/svg">
<path d="M3 13.766L3.747 13.83C3.72978 14.0221 3.63924 14.2002 3.49416 14.3272C3.34909 14.4543 3.16064 14.5206 2.96796 14.5124C2.77528 14.5041 2.59318 14.422 2.45948 14.283C2.32578 14.144 2.25076 13.9589 2.25 13.766H3ZM20.236 11.943L19.53 7.863L21.009 7.607L21.714 11.687L20.236 11.943ZM13.245 2.75H8.596V1.25H13.245V2.75ZM7.685 3.588L6.873 12.98L5.378 12.851L6.191 3.458L7.685 3.588ZM19.53 7.863C19.023 4.933 16.381 2.75 13.245 2.75V1.25C17.071 1.25 20.371 3.919 21.009 7.607L19.53 7.863ZM13.255 18.9L12.592 14.855L14.072 14.613L14.735 18.657L13.255 18.9ZM7.188 13.754L8.627 14.994L7.647 16.131L6.208 14.891L7.188 13.754ZM11.244 19.028L11.72 20.862L10.268 21.238L9.792 19.405L11.244 19.028ZM12.438 21.222L12.583 21.175L13.042 22.603L12.897 22.65L12.438 21.222ZM10.523 17.184C10.835 17.768 11.078 18.387 11.244 19.028L9.792 19.405C9.65421 18.8787 9.45553 18.3703 9.2 17.89L10.523 17.184ZM12.583 21.175C12.7255 21.1313 12.8547 21.0526 12.9588 20.946C13.063 20.8395 13.1387 20.7084 13.179 20.565L14.631 20.941C14.5281 21.3297 14.3284 21.686 14.0505 21.9766C13.7727 22.2673 13.4257 22.4828 13.042 22.603L12.583 21.175ZM11.72 20.862C11.7396 20.9342 11.7749 21.0011 11.8233 21.0582C11.8716 21.1152 11.932 21.1609 12 21.192L11.349 22.543C11.0847 22.4173 10.851 22.2354 10.6643 22.01C10.4775 21.7846 10.3423 21.5211 10.268 21.238L11.72 20.862ZM12 21.192C12.137 21.257 12.2935 21.2677 12.438 21.222L12.897 22.65C12.3863 22.8133 11.8324 22.775 11.349 22.543L12 21.192ZM14.154 13.016H19.334V14.516H14.154V13.016ZM4.719 2.594L3.747 13.83L2.253 13.701L3.223 2.465L4.719 2.594ZM3.75 2.487V13.766H2.25V2.487H3.75ZM3.223 2.465C3.21995 2.50134 3.22549 2.53792 3.23733 2.57241C3.24918 2.60691 3.26807 2.63856 3.2928 2.66536C3.31753 2.69216 3.34757 2.71353 3.381 2.7281C3.41443 2.74267 3.45053 2.75013 3.487 2.75V1.25C4.213 1.25 4.781 1.872 4.719 2.594L3.223 2.465ZM14.735 18.657C14.86 19.417 14.825 20.195 14.631 20.941L13.179 20.564C13.319 20.021 13.346 19.454 13.255 18.9L14.735 18.657ZM8.596 2.75C8.36685 2.75042 8.14619 2.83671 7.97754 2.99184C7.80889 3.14697 7.70451 3.35968 7.685 3.588L6.191 3.458C6.24303 2.85584 6.51888 2.29505 6.96411 1.88629C7.40933 1.47754 7.99159 1.25051 8.596 1.25V2.75ZM8.627 14.994C9.307 15.58 10.039 16.277 10.524 17.184L9.2 17.891C8.854 17.242 8.303 16.695 7.647 16.131L8.627 14.994ZM21.714 11.687C21.7742 12.034 21.7578 12.39 21.666 12.73C21.5741 13.07 21.4091 13.3858 21.1823 13.6553C20.9556 13.9249 20.6727 14.1415 20.3534 14.2902C20.0341 14.4389 19.6862 14.5159 19.334 14.516V13.016C19.4675 13.0159 19.5995 12.9867 19.7205 12.9303C19.8415 12.8738 19.9488 12.7916 20.0347 12.6894C20.1207 12.5872 20.1832 12.4674 20.218 12.3385C20.2527 12.2095 20.2589 12.0746 20.236 11.943L21.714 11.687ZM3.487 2.75C3.55675 2.75 3.62365 2.72229 3.67297 2.67297C3.72229 2.62365 3.75 2.55675 3.75 2.487H2.25C2.25 1.805 2.803 1.25 3.487 1.25V2.75ZM12.592 14.855C12.5547 14.6284 12.5672 14.3964 12.6285 14.1752C12.6899 13.9539 12.7986 13.7486 12.9472 13.5735C13.0958 13.3985 13.2807 13.2579 13.4891 13.1614C13.6975 13.065 13.9244 13.016 14.154 13.016V14.516C14.104 14.516 14.064 14.561 14.072 14.613L12.592 14.855ZM6.873 12.98C6.8608 13.1248 6.88208 13.2704 6.937 13.405C6.99193 13.5395 7.07794 13.6591 7.188 13.754L6.208 14.891C5.91814 14.6409 5.69177 14.3255 5.54748 13.9709C5.4032 13.6163 5.34511 13.2324 5.378 12.851L6.873 12.98Z" fill="#09090B"/>
</svg>
