<svg width="82" height="46" viewBox="0 0 82 46" fill="none" xmlns="http://www.w3.org/2000/svg">
<path d="M21.1446 32.5677H16.5169V29.253L15.452 31.0913C12.6914 34.3371 6.00117 33.4116 6.30702 28.3611C6.44793 26.0457 8.91713 24.281 11.1173 24.281H16.3391C16.8547 24.281 16.1774 22.3002 15.8539 21.9223C14.8883 20.7934 12.3423 20.7934 11.6265 22.1849C11.3655 22.6925 11.5304 23.1761 11.2342 23.5701H6.78421C6.25898 17.285 15.8507 16.0136 19.4264 19.4227C20.2239 20.1833 21.1446 22.0648 21.1446 23.1553V32.5677ZM16.5169 26.7662H12.5409C12.4992 26.7662 11.8363 26.9888 11.7402 27.0337C10.4864 27.6277 10.8115 29.2002 12.0973 29.5765C13.9516 30.1193 16.7154 29.0369 16.5153 26.7662H16.5169Z" fill="#000"/>
<path d="M36.098 22.8594H31.4702C31.5103 21.1796 30.0307 20.6848 28.5767 20.8594C26.8201 21.0707 26.1908 22.6608 28.1219 23.2997C30.6968 24.1532 35.9522 23.8137 36.4454 27.5448C36.8474 30.5792 34.7209 32.275 31.9698 32.7682C28.0371 33.4727 21.9521 32.7874 22.0963 27.5928H26.724C26.0819 30.134 31.3181 30.2285 31.7729 28.7826C32.1107 27.7065 31.3742 27.3382 30.495 27.0852C27.8689 26.3294 22.7576 26.4943 22.3461 22.7841C21.9762 19.4486 24.9305 17.8409 27.8465 17.6408C31.5567 17.3878 36.0259 18.3485 36.0996 22.8546L36.098 22.8594Z" fill="#000"/>
<path d="M43.3368 14.6891V18.0038H47.2535V21.6739H43.3368V27.4162C43.3368 27.5779 43.5753 28.441 43.6698 28.6235C44.3312 29.895 46.1871 29.1696 47.2535 29.0143V32.3882C46.9317 32.6412 46.3888 32.6924 45.9709 32.7661C43.0886 33.2721 40.0237 33.0047 39.0725 29.7765C38.954 29.3762 38.709 28.3721 38.709 28.0071V21.6723H37.0469V18.0022H38.709V14.6875H43.3368V14.6891Z" fill="#000"/>
<path d="M53.0613 18.0036V22.6217L53.7163 20.6105C54.0525 19.544 55.665 18.0036 56.7987 18.0036H58.5201V22.3847H55.4937C55.4248 22.3847 54.6498 22.6569 54.5233 22.7194C53.7947 23.0748 53.4152 23.7426 53.2327 24.5096C53.1958 24.6633 53.0613 25.4239 53.0613 25.5216V32.5657H48.4336V18.002H53.0613V18.0036Z" fill="#000"/>
<path d="M64.2215 18.0039H59.5938V32.5677H64.2215V18.0039Z" fill="#000"/>
<path d="M64.34 13.0312H59.5938V16.5829H64.34V13.0312Z" fill="#000"/>
<path d="M72.4653 17.9899C72.5886 18.1084 71.7879 21.0243 71.836 21.5896C71.8824 22.1548 72.3051 22.2637 72.7279 22.2605C74.4332 22.2525 75.6374 19.2613 76.619 17.9883H81.7207V19.8826C79.9689 20.8882 77.7511 22.7793 76.6286 24.6288C75.6582 26.2285 75.9112 27.6265 77.7783 27.8138C79.0578 27.9419 80.3564 27.9964 81.7207 28.0524V32.552H74.9889C75.0497 31.548 75.5542 30.0172 75.5109 29.0692C75.4709 28.1965 73.9096 28.243 73.4629 28.7618L70.8351 32.552H65.418V30.4207C66.1209 30.1293 66.8383 29.5928 67.45 29.0964C68.4284 28.3022 70.462 26.2926 70.9296 25.0804C72.2427 21.6777 66.9712 22.4367 65.418 22.3694V17.9883H72.4653V17.9899Z" fill="#000"/>
<path d="M1.70698 17.9896L1.984 16.3755L0.542838 17.1297L0 15.4228L1.6141 15.197L0.462773 14.0472L1.91835 13L2.64053 14.47L3.3483 13.0272L4.80388 14.0793L3.63974 15.2242L5.24103 15.45L4.67738 17.1554L3.22821 16.4027L3.50683 17.9896H1.70698Z" fill="#B0E681"/>
</svg>
